<svg width="24" height="25" viewBox="0 0 24 25" fill="none" xmlns="http://www.w3.org/2000/svg">
<path d="M7.5 17.7196C7.44458 16.5292 6.62155 16.5 5.50505 16.5C3.78514 16.5 3.5 16.906 3.5 18.5V20.5C3.5 22.094 3.78514 22.5 5.50505 22.5C6.62154 22.5 7.44458 22.4708 7.5 21.2804M20.5 16.5L18.7229 21.1947C18.3935 22.0649 18.2288 22.5 17.968 22.5C17.7071 22.5 17.5424 22.0649 17.213 21.1947L15.4359 16.5M12.876 16.5H11.6951C11.2231 16.5 10.9872 16.5 10.8011 16.5761C10.1672 16.8354 10.1758 17.4448 10.1758 18C10.1758 18.5553 10.1672 19.1647 10.8011 19.4239C10.9872 19.5 11.2232 19.5 11.6951 19.5C12.167 19.5 12.4029 19.5 12.5891 19.5761C13.2229 19.8354 13.2143 20.4447 13.2143 21C13.2143 21.5553 13.2229 22.1647 12.5891 22.4239C12.4029 22.5 12.167 22.5 11.6951 22.5H10.4089" stroke="#2D3139" stroke-width="1.5" stroke-linecap="round"/>
<path d="M20 13.5V11.1569C20 10.3394 20 9.9306 19.8478 9.56306C19.6955 9.19552 19.4065 8.90649 18.8284 8.32843L14.0919 3.59188C13.593 3.093 13.3436 2.84355 13.0345 2.69575C12.9702 2.665 12.9044 2.63772 12.8372 2.61401C12.5141 2.5 12.1614 2.5 11.4558 2.5C8.21082 2.5 6.58831 2.5 5.48933 3.38607C5.26731 3.56508 5.06508 3.76731 4.88607 3.98933C4 5.08831 4 6.71082 4 9.95584V13.5M13 3V3.5C13 6.32843 13 7.74264 13.8787 8.62132C14.7574 9.5 16.1716 9.5 19 9.5H19.5" stroke="#2D3139" stroke-width="1.5" stroke-linecap="round" stroke-linejoin="round"/>
</svg>
