<svg width="24" height="25" viewBox="0 0 24 25" fill="none" xmlns="http://www.w3.org/2000/svg">
<path d="M12 22C7.52166 22 5.28249 22 3.89124 20.6088C2.5 19.2175 2.5 16.9783 2.5 12.5C2.5 8.02166 2.5 5.78249 3.89124 4.39124C5.28249 3 7.52166 3 12 3C16.4783 3 18.7175 3 20.1088 4.39124C21.5 5.78249 21.5 8.02166 21.5 12.5" stroke="#2D3139" stroke-width="1.5" stroke-linecap="round" stroke-linejoin="round"/>
<path d="M2.5 9.5H21.5" stroke="#2D3139" stroke-width="1.5"/>
<path d="M2.5 13.5H16.5" stroke="#2D3139" stroke-width="1.5" stroke-linecap="round"/>
<path d="M2.5 17.5H12" stroke="#2D3139" stroke-width="1.5"/>
<path d="M12 22V9.5" stroke="#2D3139" stroke-width="1.5" stroke-linecap="round"/>
<path d="M18.6014 20.1832L20.8308 17.9538C21.1423 17.6424 21.298 17.4867 21.3812 17.3187C21.5396 16.9991 21.5396 16.6239 21.3812 16.3043C21.298 16.1363 21.1423 15.9806 20.8308 15.6692C20.5194 15.3577 20.3637 15.202 20.1957 15.1188C19.8761 14.9604 19.5009 14.9604 19.1813 15.1188C19.0133 15.202 18.8576 15.3577 18.5462 15.6692L16.1155 18.0999C15.4028 18.8126 15.0464 19.1689 14.8262 19.6056C14.7582 19.7404 14.7003 19.8802 14.6531 20.0237C14.5 20.4881 14.5 20.9921 14.5 22L15.155 21.9064C16.1514 21.7641 16.6496 21.6929 17.0917 21.4718C17.5339 21.2508 17.8897 20.8949 18.6014 20.1832Z" stroke="#2D3139" stroke-width="1.5" stroke-linecap="square" stroke-linejoin="round"/>
</svg>
