<svg width="20" height="21" viewBox="0 0 20 21" fill="none" xmlns="http://www.w3.org/2000/svg">
<path opacity="0.5" d="M5.03043 1.56689C5.64638 1.56688 6.15264 1.56688 6.56222 1.60582C6.98783 1.64629 7.37312 1.73317 7.72358 1.94794C8.07151 2.16115 8.36404 2.45368 8.57725 2.80161C8.79202 3.15207 8.8789 3.53736 8.91937 3.96297C8.95831 4.37254 8.9583 4.87879 8.95829 5.49472V5.49476V5.5557V5.55574C8.9583 6.17167 8.95831 6.67792 8.91937 7.08749C8.8789 7.5131 8.79202 7.89839 8.57725 8.24885C8.36404 8.59678 8.07151 8.88931 7.72358 9.10252C7.37312 9.31728 6.98783 9.40417 6.56222 9.44464C6.15265 9.48358 5.6464 9.48357 5.03047 9.48356H5.03043H4.96949H4.96945C4.35352 9.48357 3.84727 9.48358 3.4377 9.44464C3.01209 9.40417 2.6268 9.31728 2.27634 9.10252C1.92841 8.88931 1.63588 8.59678 1.42267 8.24885C1.2079 7.89839 1.12102 7.5131 1.08055 7.08749C1.04161 6.67791 1.04162 6.17165 1.04163 5.5557V5.55569V5.49477V5.49476C1.04162 4.87881 1.04161 4.37255 1.08055 3.96297C1.12102 3.53736 1.2079 3.15207 1.42267 2.80161C1.63588 2.45368 1.92841 2.16115 2.27634 1.94794C2.6268 1.73317 3.01209 1.64629 3.4377 1.60582C3.84728 1.56688 4.35354 1.56688 4.96949 1.56689H4.9695H5.03042H5.03043Z" fill="#141B34"/>
<path d="M5.03043 11.5669C5.64638 11.5669 6.15264 11.5669 6.56222 11.6058C6.98783 11.6463 7.37312 11.7332 7.72358 11.9479C8.07151 12.1611 8.36404 12.4537 8.57725 12.8016C8.79202 13.1521 8.8789 13.5374 8.91937 13.963C8.95831 14.3725 8.9583 14.8788 8.95829 15.4947V15.4948V15.5557V15.5557C8.9583 16.1717 8.95831 16.6779 8.91937 17.0875C8.8789 17.5131 8.79202 17.8984 8.57725 18.2488C8.36404 18.5968 8.07151 18.8893 7.72358 19.1025C7.37312 19.3173 6.98783 19.4042 6.56222 19.4446C6.15265 19.4836 5.6464 19.4836 5.03047 19.4836H5.03043H4.96949H4.96945C4.35352 19.4836 3.84727 19.4836 3.4377 19.4446C3.01209 19.4042 2.6268 19.3173 2.27634 19.1025C1.92841 18.8893 1.63588 18.5968 1.42267 18.2488C1.2079 17.8984 1.12102 17.5131 1.08055 17.0875C1.04161 16.6779 1.04162 16.1716 1.04163 15.5557V15.5557V15.4948V15.4948C1.04162 14.8788 1.04161 14.3725 1.08055 13.963C1.12102 13.5374 1.2079 13.1521 1.42267 12.8016C1.63588 12.4537 1.92841 12.1611 2.27634 11.9479C2.6268 11.7332 3.01209 11.6463 3.4377 11.6058C3.84728 11.5669 4.35354 11.5669 4.96949 11.5669H4.9695H5.03042H5.03043Z" fill="#141B34"/>
<path d="M15.0304 1.56689C15.6464 1.56688 16.1526 1.56688 16.5622 1.60582C16.9878 1.64629 17.3731 1.73317 17.7236 1.94794C18.0715 2.16115 18.364 2.45368 18.5773 2.80161C18.792 3.15207 18.8789 3.53736 18.9194 3.96297C18.9583 4.37254 18.9583 4.87879 18.9583 5.49472V5.49476V5.5557V5.55574C18.9583 6.17167 18.9583 6.67792 18.9194 7.08749C18.8789 7.5131 18.792 7.89839 18.5773 8.24885C18.364 8.59678 18.0715 8.88931 17.7236 9.10252C17.3731 9.31728 16.9878 9.40417 16.5622 9.44464C16.1526 9.48358 15.6464 9.48357 15.0305 9.48356H15.0304H14.9695H14.9695C14.3535 9.48357 13.8473 9.48358 13.4377 9.44464C13.0121 9.40417 12.6268 9.31728 12.2763 9.10252C11.9284 8.88931 11.6359 8.59678 11.4227 8.24885C11.2079 7.89839 11.121 7.5131 11.0806 7.08749C11.0416 6.67791 11.0416 6.17165 11.0416 5.5557V5.55569V5.49477V5.49476C11.0416 4.87881 11.0416 4.37255 11.0806 3.96297C11.121 3.53736 11.2079 3.15207 11.4227 2.80161C11.6359 2.45368 11.9284 2.16115 12.2763 1.94794C12.6268 1.73317 13.0121 1.64629 13.4377 1.60582C13.8473 1.56688 14.3535 1.56688 14.9695 1.56689H14.9695H15.0304H15.0304Z" fill="#141B34"/>
<path opacity="0.5" d="M15.0304 11.5669C15.6464 11.5669 16.1526 11.5669 16.5622 11.6058C16.9878 11.6463 17.3731 11.7332 17.7236 11.9479C18.0715 12.1611 18.364 12.4537 18.5773 12.8016C18.792 13.1521 18.8789 13.5374 18.9194 13.963C18.9583 14.3725 18.9583 14.8788 18.9583 15.4947V15.4948V15.5557V15.5557C18.9583 16.1717 18.9583 16.6779 18.9194 17.0875C18.8789 17.5131 18.792 17.8984 18.5773 18.2488C18.364 18.5968 18.0715 18.8893 17.7236 19.1025C17.3731 19.3173 16.9878 19.4042 16.5622 19.4446C16.1526 19.4836 15.6464 19.4836 15.0305 19.4836H15.0304H14.9695H14.9695C14.3535 19.4836 13.8473 19.4836 13.4377 19.4446C13.0121 19.4042 12.6268 19.3173 12.2763 19.1025C11.9284 18.8893 11.6359 18.5968 11.4227 18.2488C11.2079 17.8984 11.121 17.5131 11.0806 17.0875C11.0416 16.6779 11.0416 16.1716 11.0416 15.5557V15.5557V15.4948V15.4948C11.0416 14.8788 11.0416 14.3725 11.0806 13.963C11.121 13.5374 11.2079 13.1521 11.4227 12.8016C11.6359 12.4537 11.9284 12.1611 12.2763 11.9479C12.6268 11.7332 13.0121 11.6463 13.4377 11.6058C13.8473 11.5669 14.3535 11.5669 14.9695 11.5669H14.9695H15.0304H15.0304Z" fill="#141B34"/>
</svg>
