<svg width="20" height="21" viewBox="0 0 20 21" fill="none" xmlns="http://www.w3.org/2000/svg">
<path d="M2.08334 10.526C2.08334 6.79409 2.08334 4.92811 3.24271 3.76874C4.40208 2.60938 6.26806 2.60938 10 2.60938C13.732 2.60938 15.5979 2.60938 16.7573 3.76874C17.9167 4.92811 17.9167 6.79409 17.9167 10.526C17.9167 14.258 17.9167 16.124 16.7573 17.2833C15.5979 18.4427 13.732 18.4427 10 18.4427C6.26806 18.4427 4.40208 18.4427 3.24271 17.2833C2.08334 16.124 2.08334 14.258 2.08334 10.526Z" stroke="#141B34" stroke-width="1.25" stroke-linejoin="round"/>
<path d="M9.16668 6.77604H14.1667M6.66668 6.77604C6.66668 7.00616 6.48013 7.19271 6.25001 7.19271C6.01989 7.19271 5.83334 7.00616 5.83334 6.77604C5.83334 6.54592 6.01989 6.35938 6.25001 6.35938C6.48013 6.35938 6.66668 6.54592 6.66668 6.77604Z" stroke="#141B34" stroke-width="1.25" stroke-linecap="round" stroke-linejoin="round"/>
<path d="M9.16668 10.526H14.1667M6.66668 10.526C6.66668 10.7562 6.48013 10.9427 6.25001 10.9427C6.01989 10.9427 5.83334 10.7562 5.83334 10.526C5.83334 10.2959 6.01989 10.1094 6.25001 10.1094C6.48013 10.1094 6.66668 10.2959 6.66668 10.526Z" stroke="#141B34" stroke-width="1.25" stroke-linecap="round" stroke-linejoin="round"/>
<path d="M9.16668 14.276H14.1667M6.66668 14.276C6.66668 14.5062 6.48013 14.6927 6.25001 14.6927C6.01989 14.6927 5.83334 14.5062 5.83334 14.276C5.83334 14.0459 6.01989 13.8594 6.25001 13.8594C6.48013 13.8594 6.66668 14.0459 6.66668 14.276Z" stroke="#141B34" stroke-width="1.25" stroke-linecap="round" stroke-linejoin="round"/>
</svg>
