<svg width="20" height="21" viewBox="0 0 20 21" fill="none" xmlns="http://www.w3.org/2000/svg">
<path opacity="0.4" d="M10.0476 1.98438C11.8732 1.98436 13.3071 1.98436 14.4266 2.13487C15.5738 2.28911 16.4841 2.61164 17.1992 3.3268C17.9144 4.04197 18.2369 4.95218 18.3911 6.09939C18.5417 7.21891 18.5417 8.6528 18.5416 10.4784V10.4784V10.5737V10.5737C18.5417 12.3993 18.5417 13.8332 18.3911 14.9527C18.2369 16.0999 17.9144 17.0101 17.1992 17.7253C16.4841 18.4404 15.5738 18.763 14.4266 18.9172C13.3071 19.0677 11.8732 19.0677 10.0476 19.0677H10.0476H9.95234H9.95232C8.12674 19.0677 6.69284 19.0677 5.57333 18.9172C4.42612 18.763 3.51591 18.4404 2.80074 17.7253C2.08558 17.0101 1.76305 16.0999 1.60881 14.9527C1.45829 13.8332 1.4583 12.3993 1.45831 10.5737V10.4784C1.4583 8.65281 1.45829 7.21891 1.60881 6.09939C1.76305 4.95218 2.08558 4.04197 2.80074 3.3268C3.51591 2.61164 4.42612 2.28911 5.57333 2.13487C6.69285 1.98436 8.12675 1.98436 9.95233 1.98438H10.0476Z" fill="#2D3139"/>
<path d="M5.20831 6.77604C5.20831 6.20075 5.67468 5.73438 6.24998 5.73438C6.82528 5.73438 7.29165 6.20075 7.29165 6.77604C7.29165 7.35134 6.82528 7.81771 6.24998 7.81771C5.67468 7.81771 5.20831 7.35134 5.20831 6.77604Z" fill="#2D3139"/>
<path d="M8.54165 6.77604C8.54165 6.43086 8.82147 6.15104 9.16665 6.15104H14.1666C14.5118 6.15104 14.7916 6.43086 14.7916 6.77604C14.7916 7.12122 14.5118 7.40104 14.1666 7.40104H9.16665C8.82147 7.40104 8.54165 7.12122 8.54165 6.77604Z" fill="#2D3139"/>
<path d="M5.20831 10.526C5.20831 9.95075 5.67468 9.48438 6.24998 9.48438C6.82528 9.48438 7.29165 9.95075 7.29165 10.526C7.29165 11.1013 6.82528 11.5677 6.24998 11.5677C5.67468 11.5677 5.20831 11.1013 5.20831 10.526Z" fill="#2D3139"/>
<path d="M8.54165 10.526C8.54165 10.1809 8.82147 9.90104 9.16665 9.90104H14.1666C14.5118 9.90104 14.7916 10.1809 14.7916 10.526C14.7916 10.8712 14.5118 11.151 14.1666 11.151H9.16665C8.82147 11.151 8.54165 10.8712 8.54165 10.526Z" fill="#2D3139"/>
<path d="M5.20831 14.276C5.20831 13.7007 5.67468 13.2344 6.24998 13.2344C6.82528 13.2344 7.29165 13.7007 7.29165 14.276C7.29165 14.8513 6.82528 15.3177 6.24998 15.3177C5.67468 15.3177 5.20831 14.8513 5.20831 14.276Z" fill="#2D3139"/>
<path d="M8.54165 14.276C8.54165 13.9309 8.82147 13.651 9.16665 13.651H14.1666C14.5118 13.651 14.7916 13.9309 14.7916 14.276C14.7916 14.6212 14.5118 14.901 14.1666 14.901H9.16665C8.82147 14.901 8.54165 14.6212 8.54165 14.276Z" fill="#2D3139"/>
</svg>
