<svg width="20" height="21" viewBox="0 0 20 21" fill="none" xmlns="http://www.w3.org/2000/svg">
<path fill-rule="evenodd" clip-rule="evenodd" d="M13.75 10.5253C14.2102 10.5253 14.5833 10.8984 14.5833 11.3586V11.5835C15.0827 11.7131 15.5362 11.9564 15.9125 12.2844L16.211 12.0895C16.5963 11.8378 17.1127 11.9462 17.3644 12.3315C17.616 12.7168 17.5077 13.2332 17.1223 13.4849L16.8441 13.6666C16.9541 13.9887 17.0139 14.3337 17.0139 14.6919C17.0139 15.0503 16.9541 15.3953 16.844 15.7174L17.122 15.899C17.5073 16.1506 17.6157 16.667 17.364 17.0524C17.1124 17.4377 16.596 17.5461 16.2107 17.2944L15.9124 17.0996C15.5361 17.4275 15.0827 17.6708 14.5833 17.8004V18.0253C14.5833 18.4855 14.2102 18.8586 13.75 18.8586C13.2897 18.8586 12.9166 18.4855 12.9166 18.0253V17.8004C12.4173 17.6708 11.9639 17.4275 11.5876 17.0996L11.2893 17.2944C10.904 17.5461 10.3876 17.4377 10.1359 17.0524C9.88424 16.667 9.99261 16.1506 10.3779 15.899L10.6559 15.7174C10.5459 15.3953 10.4861 15.0503 10.4861 14.6919C10.4861 14.3337 10.5459 13.9887 10.6559 13.6666L10.3776 13.4849C9.9923 13.2332 9.88393 12.7168 10.1356 12.3315C10.3873 11.9462 10.9036 11.8378 11.289 12.0895L11.5875 12.2844C11.9638 11.9564 12.4172 11.7131 12.9166 11.5835V11.3586C12.9166 10.8984 13.2897 10.5253 13.75 10.5253ZM13.75 13.1443C13.1888 13.1443 12.7004 13.4233 12.4159 13.8406C12.2489 14.0854 12.1528 14.3771 12.1528 14.6919C12.1528 15.0068 12.249 15.2985 12.416 15.5434C12.7005 15.9606 13.1889 16.2396 13.75 16.2396C14.3111 16.2396 14.7995 15.9606 15.084 15.5434C15.251 15.2985 15.3472 15.0068 15.3472 14.6919C15.3472 14.3771 15.251 14.0854 15.084 13.8406C14.7995 13.4233 14.3111 13.1443 13.75 13.1443Z" fill="#141B34"/>
<path opacity="0.4" fill-rule="evenodd" clip-rule="evenodd" d="M2.5 3.02523C2.5 2.56499 2.8731 2.19189 3.33333 2.19189H16.6667C17.1269 2.19189 17.5 2.56499 17.5 3.02523C17.5 3.48547 17.1269 3.85856 16.6667 3.85856H3.33333C2.8731 3.85856 2.5 3.48547 2.5 3.02523Z" fill="#141B34"/>
<path opacity="0.4" fill-rule="evenodd" clip-rule="evenodd" d="M2.5 8.02523C2.5 7.56499 2.8731 7.19189 3.33333 7.19189H16.6667C17.1269 7.19189 17.5 7.56499 17.5 8.02523C17.5 8.48547 17.1269 8.85856 16.6667 8.85856H3.33333C2.8731 8.85856 2.5 8.48547 2.5 8.02523Z" fill="#141B34"/>
<path opacity="0.4" fill-rule="evenodd" clip-rule="evenodd" d="M2.5 13.0252C2.5 12.565 2.8731 12.1919 3.33333 12.1919H7.5C7.96024 12.1919 8.33333 12.565 8.33333 13.0252C8.33333 13.4855 7.96024 13.8586 7.5 13.8586H3.33333C2.8731 13.8586 2.5 13.4855 2.5 13.0252Z" fill="#141B34"/>
</svg>
