<svg width="20" height="20" viewBox="0 0 20 20" fill="none" xmlns="http://www.w3.org/2000/svg">
<path opacity="0.4" fill-rule="evenodd" clip-rule="evenodd" d="M10.1608 2.2229C10.314 2.6569 10.0863 3.1329 9.65231 3.28607L9.10018 3.48094C8.00783 3.86648 7.25417 4.13378 6.69246 4.4063C6.1498 4.66958 5.86301 4.90299 5.66745 5.17941C5.47188 5.45582 5.34722 5.80394 5.27956 6.40328C5.20952 7.02368 5.20829 7.82333 5.20829 8.98172V11.0188C5.20829 12.1772 5.20952 12.9768 5.27956 13.5972C5.34722 14.1966 5.47188 14.5447 5.66745 14.8211C5.86301 15.0975 6.1498 15.3309 6.69246 15.5942C7.25417 15.8667 8.00783 16.134 9.10018 16.5196L9.65231 16.7144C10.0863 16.8676 10.314 17.3436 10.1608 17.7776C10.0076 18.2116 9.53161 18.4392 9.09761 18.2861L8.49987 18.0751C7.46413 17.7096 6.62117 17.4121 5.96495 17.0937C5.28007 16.7614 4.72351 16.3726 4.30688 15.7837C3.89024 15.1948 3.7088 14.5406 3.62341 13.7842C3.54159 13.0594 3.54161 12.1655 3.54163 11.0672V8.93334C3.54161 7.835 3.54159 6.94109 3.62341 6.21632C3.7088 5.4599 3.89024 4.80566 4.30688 4.21679C4.72351 3.62791 5.28007 3.23907 5.96495 2.90679C6.62117 2.58843 7.46412 2.29093 8.49986 1.92539L9.09761 1.71442C9.53161 1.56125 10.0076 1.7889 10.1608 2.2229Z" fill="#141B34"/>
<path d="M8.95833 10.8382C8.4981 10.8382 8.125 10.4651 8.125 10.0049C8.125 9.54467 8.4981 9.17157 8.95833 9.17157L14.375 9.17157L14.375 8.67635C14.3749 8.52999 14.3748 8.35028 14.3932 8.20325L14.3935 8.20046C14.4067 8.09509 14.4665 7.61505 14.9379 7.38642C15.4102 7.15728 15.827 7.4089 15.9172 7.46333L16.3076 7.74595C16.6208 7.99147 17.0495 8.32956 17.3753 8.64659C17.5379 8.80478 17.7056 8.98583 17.838 9.17825C17.9556 9.3493 18.125 9.64113 18.125 10C18.125 10.3589 17.9556 10.6507 17.838 10.8218C17.7056 11.0142 17.5379 11.1953 17.3753 11.3535C17.0495 11.6705 16.6208 12.0086 16.3076 12.2541L15.9172 12.5367C15.827 12.5911 15.4102 12.8428 14.9379 12.6136C14.4665 12.385 14.4067 11.905 14.3935 11.7996L14.3932 11.7968C14.3748 11.6498 14.3749 11.47 14.375 11.3237L14.375 10.8382L8.95833 10.8382Z" fill="#141B34"/>
</svg>
