<svg width="20" height="20" viewBox="0 0 20 20" fill="none" xmlns="http://www.w3.org/2000/svg">
<path opacity="0.4" d="M1.04166 9.99935C1.04166 5.0518 5.05244 1.04102 9.99999 1.04102C14.9475 1.04102 18.9583 5.0518 18.9583 9.99935C18.9583 14.9469 14.9475 18.9577 9.99999 18.9577C5.05244 18.9577 1.04166 14.9469 1.04166 9.99935Z" fill="#141B34"/>
<path d="M7.28173 7.91732C7.28173 6.42071 8.49646 5.20898 9.99303 5.20898C11.4896 5.20898 12.7043 6.42071 12.7043 7.91732C12.7043 9.41393 11.4896 10.6257 9.99303 10.6257C8.49646 10.6257 7.28173 9.41393 7.28173 7.91732Z" fill="#141B34"/>
<path d="M5.80318 13.7303C7.97893 11.4579 11.9779 11.3341 14.2008 13.7341L14.3533 13.8866C14.4743 14.0077 14.5404 14.1731 14.5361 14.3442C14.5318 14.5154 14.4575 14.6773 14.3305 14.7921C13.1854 15.8276 11.6658 16.459 10.0001 16.459C8.33441 16.459 6.81474 15.8276 5.66967 14.7921C5.54268 14.6773 5.46836 14.5154 5.46406 14.3442C5.45977 14.1731 5.52587 14.0077 5.64693 13.8866L5.80318 13.7303Z" fill="#141B34"/>
</svg>
