<svg width="20" height="20" viewBox="0 0 20 20" fill="none" xmlns="http://www.w3.org/2000/svg">
<path d="M12.5 7.5C12.5 6.11929 11.3807 5 10 5C8.61925 5 7.5 6.11929 7.5 7.5C7.5 8.88075 8.61925 10 10 10C11.3807 10 12.5 8.88075 12.5 7.5Z" stroke="#2D3139" stroke-width="1.25" stroke-linecap="round" stroke-linejoin="round"/>
<path d="M18.3333 10.0013C18.3333 5.39893 14.6023 1.66797 9.99996 1.66797C5.39758 1.66797 1.66663 5.39893 1.66663 10.0013C1.66663 14.6036 5.39758 18.3346 9.99996 18.3346C14.6023 18.3346 18.3333 14.6036 18.3333 10.0013Z" stroke="#2D3139" stroke-width="1.25" stroke-linecap="round" stroke-linejoin="round"/>
<path d="M14.1666 14.1667C14.1666 11.8655 12.3011 10 9.99998 10C7.6988 10 5.83331 11.8655 5.83331 14.1667" stroke="#2D3139" stroke-width="1.25" stroke-linecap="round" stroke-linejoin="round"/>
</svg>
