<svg width="20" height="20" viewBox="0 0 20 20" fill="none" xmlns="http://www.w3.org/2000/svg">
<path d="M3.27317 7.73082C3.2732 4.03461 6.28678 1.04169 9.99996 1.04169C13.7132 1.04169 16.7267 4.03464 16.7267 7.73088C16.7268 8.59067 16.7846 9.2395 17.1811 9.82275C17.2362 9.90265 17.3093 10.0027 17.3892 10.1121C17.528 10.3021 17.6872 10.52 17.808 10.7088C18.0212 11.0419 18.2295 11.4437 18.3011 11.9118C18.5347 13.4392 17.4578 14.4281 16.3854 14.8712C12.6082 16.4319 7.39176 16.4319 3.61451 14.8712C2.54209 14.4281 1.46526 13.4392 1.69886 11.9118C1.77045 11.4437 1.97873 11.0419 2.1919 10.7088C2.31269 10.52 2.47192 10.3021 2.61071 10.1121C2.69063 10.0027 2.76376 9.9026 2.81888 9.82268C3.21528 9.23946 3.2731 8.59056 3.27317 7.73082Z" fill="#141B34"/>
<path opacity="0.4" fill-rule="evenodd" clip-rule="evenodd" d="M6.45288 14.8198C6.89768 14.7016 7.35408 14.9664 7.47229 15.4112C7.75554 16.477 8.7673 17.2919 10.0002 17.2919C11.2332 17.2919 12.245 16.477 12.5282 15.4112C12.6464 14.9664 13.1028 14.7016 13.5476 14.8198C13.9924 14.9381 14.2572 15.3945 14.139 15.8393C13.6581 17.6488 11.9748 18.9586 10.0002 18.9586C8.02574 18.9586 6.34244 17.6488 5.86153 15.8393C5.74333 15.3945 6.00808 14.9381 6.45288 14.8198Z" fill="#141B34"/>
</svg>
