<svg width="20" height="21" viewBox="0 0 20 21" fill="none" xmlns="http://www.w3.org/2000/svg">
<path opacity="0.4" d="M6.67887 2.29611C6.81489 2.23675 7.0147 2.16819 7.25169 2.19993C7.50933 2.23443 7.70032 2.38147 7.81013 2.47327C7.92674 2.57075 8.22 2.8616 8.22 2.8616C8.70588 3.3434 9.35289 3.58438 9.99996 3.58456C10.647 3.58438 11.294 3.3434 11.7799 2.8616C11.7799 2.8616 12.0732 2.57075 12.1898 2.47327C12.2996 2.38147 12.4906 2.23443 12.7482 2.19993C12.9852 2.16819 13.185 2.23675 13.321 2.29611C13.4461 2.35067 13.5872 2.43033 13.724 2.5076L15.5983 3.58135C15.7198 3.66731 15.884 3.80415 15.9783 4.02559C16.0811 4.26733 16.0479 4.51098 16.0235 4.65191C15.9971 4.8044 15.9422 5.01436 15.8897 5.21528C15.5595 6.47929 16.3661 7.83906 17.6718 8.18899L17.6948 8.19515L17.6948 8.19516C17.8924 8.24808 18.0775 8.29767 18.2222 8.34986C18.3577 8.39869 18.584 8.49035 18.7435 8.69729C18.8901 8.88748 18.929 9.0959 18.9443 9.24342C18.9584 9.37949 18.9583 9.54225 18.9583 9.70061V11.3499V11.3499C18.9583 11.5083 18.9584 11.671 18.9443 11.8071C18.929 11.9546 18.8901 12.163 18.7435 12.3532C18.584 12.5601 18.3577 12.6518 18.2223 12.7006C18.0775 12.7528 17.6718 12.8615 17.6718 12.8615C16.3666 13.2114 15.5605 14.5709 15.8909 15.8351C15.8909 15.8351 15.9984 16.246 16.0248 16.3984C16.0493 16.5394 16.0825 16.783 15.9796 17.0248C15.8854 17.2463 15.7212 17.3831 15.5997 17.4691L13.7254 18.5428L13.7253 18.5429C13.5885 18.6201 13.4474 18.6998 13.3223 18.7544C13.1863 18.8137 12.9865 18.8823 12.7495 18.8505C12.4918 18.816 12.3008 18.6689 12.191 18.5771C12.0744 18.4796 11.7812 18.1888 11.7812 18.1888C11.295 17.7065 10.6475 17.4653 9.99996 17.4651C9.3524 17.4653 8.7049 17.7065 8.2187 18.1888C8.2187 18.1888 7.9255 18.4796 7.8089 18.5771C7.69908 18.6689 7.5081 18.816 7.25045 18.8505C7.01344 18.8823 6.81362 18.8137 6.67758 18.7544C6.55256 18.6998 6.41146 18.6201 6.27464 18.5429L6.27456 18.5428L4.40025 17.4691C4.27873 17.3831 4.11454 17.2463 4.0203 17.0248C3.91743 16.783 3.95064 16.5394 3.9751 16.3984C4.00156 16.246 4.10898 15.8351 4.10898 15.8351C4.43938 14.5709 3.63332 13.2114 2.32807 12.8615C2.32807 12.8615 1.92241 12.7528 1.77765 12.7006C1.64222 12.6518 1.41587 12.5601 1.25638 12.3532C1.1098 12.163 1.07095 11.9546 1.05566 11.8071C1.04156 11.671 1.04159 11.5083 1.04163 11.3499V9.70061C1.04159 9.54225 1.04156 9.37949 1.05566 9.24342C1.07095 9.0959 1.10981 8.88748 1.25639 8.69729C1.41589 8.49035 1.64224 8.39869 1.77768 8.34986C1.92245 8.29767 2.10756 8.24808 2.30511 8.19515L2.32811 8.18899C3.63384 7.83906 4.44043 6.47929 4.11023 5.21528C4.05773 5.01436 4.00286 4.8044 3.97641 4.65191C3.95197 4.51098 3.91878 4.26733 4.02166 4.02559C4.1159 3.80415 4.28009 3.66731 4.4016 3.58135L6.2759 2.5076C6.41275 2.43033 6.55383 2.35067 6.67887 2.29611Z" fill="#141B34"/>
<path d="M12.9167 10.5253C12.9167 12.1361 11.6109 13.442 10 13.442C8.38921 13.442 7.08337 12.1361 7.08337 10.5253C7.08337 8.91448 8.38921 7.60864 10 7.60864C11.6109 7.60864 12.9167 8.91448 12.9167 10.5253Z" fill="#141B34"/>
</svg>
