<svg width="24" height="25" viewBox="0 0 24 25" fill="none" xmlns="http://www.w3.org/2000/svg">
<path d="M15 8.52527C15 10.1821 13.6569 11.5253 12 11.5253C10.3431 11.5253 9 10.1821 9 8.52527C9 6.86842 10.3431 5.52527 12 5.52527C13.6569 5.52527 15 6.86842 15 8.52527Z" stroke="#17181C" stroke-width="1.5" stroke-linecap="round" stroke-linejoin="round"/>
<path d="M16 4.52527C17.6568 4.52527 19 5.86842 19 7.52527C19 8.74836 18.268 9.8005 17.2183 10.2676" stroke="#17181C" stroke-width="1.5" stroke-linecap="round" stroke-linejoin="round"/>
<path d="M13.7143 14.5253H10.2857C7.91878 14.5253 6 16.4441 6 18.811C6 19.7578 6.76751 20.5253 7.71428 20.5253H16.2857C17.2325 20.5253 18 19.7578 18 18.811C18 16.4441 16.0812 14.5253 13.7143 14.5253Z" stroke="#17181C" stroke-width="1.5" stroke-linecap="round" stroke-linejoin="round"/>
<path d="M17.7144 13.5253C20.0813 13.5253 22.0001 15.4441 22.0001 17.811C22.0001 18.7578 21.2326 19.5253 20.2858 19.5253" stroke="#17181C" stroke-width="1.5" stroke-linecap="round" stroke-linejoin="round"/>
<path d="M8 4.52527C6.34315 4.52527 5 5.86842 5 7.52527C5 8.74836 5.73193 9.8005 6.78168 10.2676" stroke="#17181C" stroke-width="1.5" stroke-linecap="round" stroke-linejoin="round"/>
<path d="M3.71429 19.5253C2.76751 19.5253 2 18.7578 2 17.811C2 15.4441 3.91878 13.5253 6.28571 13.5253" stroke="#17181C" stroke-width="1.5" stroke-linecap="round" stroke-linejoin="round"/>
</svg>
