<svg width="20" height="20" viewBox="0 0 20 20" fill="none" xmlns="http://www.w3.org/2000/svg">
<path d="M11.3481 17.7993C10.9867 18.1377 10.5037 18.3268 10.0009 18.3268C9.49817 18.3268 9.01517 18.1377 8.65375 17.7993C5.34418 14.6818 0.908967 11.1992 3.07189 6.14321C4.24136 3.40946 7.04862 1.66016 10.0009 1.66016C12.9532 1.66016 15.7605 3.40946 16.93 6.14321C19.0902 11.1929 14.6658 14.6926 11.3481 17.7993Z" stroke="#8E95A4" stroke-width="1.25"/>
<path d="M12.9166 9.15885C12.9166 10.7697 11.6108 12.0755 9.99998 12.0755C8.38915 12.0755 7.08331 10.7697 7.08331 9.15885C7.08331 7.54802 8.38915 6.24219 9.99998 6.24219C11.6108 6.24219 12.9166 7.54802 12.9166 9.15885Z" stroke="#8E95A4" stroke-width="1.25"/>
</svg>
