<svg width="20" height="20" viewBox="0 0 20 20" fill="none" xmlns="http://www.w3.org/2000/svg">
<path d="M9.17216 17.4987H8.00463C5.01692 17.4987 3.52307 17.4987 2.59491 16.5529C1.66675 15.6071 1.66675 14.0848 1.66675 11.0403C1.66675 7.99588 1.66675 6.47363 2.59491 5.52783C3.52307 4.58203 5.01692 4.58203 8.00463 4.58203H11.1736C14.1612 4.58203 15.6552 4.58203 16.5833 5.52783C17.2974 6.25552 17.4621 7.32445 17.5001 9.16535" stroke="#8E95A4" stroke-width="1.25" stroke-linecap="round"/>
<path d="M14.2592 11.0446C14.413 10.9029 14.4899 10.832 14.5834 10.832C14.6768 10.832 14.7537 10.9029 14.9075 11.0446L15.5014 11.5918C15.5732 11.6579 15.609 11.6909 15.6536 11.7073C15.6982 11.7237 15.7469 11.7218 15.8444 11.7179L16.6469 11.6864C16.8534 11.6783 16.9568 11.6743 17.0276 11.7338C17.0984 11.7933 17.1122 11.8958 17.1398 12.1007L17.2504 12.9218C17.2631 13.0167 17.2695 13.0641 17.2926 13.1046C17.3158 13.1451 17.3534 13.1747 17.4286 13.2339L18.0749 13.7427C18.2348 13.8686 18.3148 13.9315 18.3306 14.0215C18.3464 14.1115 18.2928 14.1979 18.1854 14.3709L17.7471 15.0773C17.6969 15.1581 17.6719 15.1985 17.6639 15.2442C17.6559 15.2898 17.6659 15.3364 17.6857 15.4294L17.8596 16.2447C17.9023 16.445 17.9237 16.5452 17.8778 16.6248C17.8319 16.7043 17.7345 16.736 17.5398 16.7994L16.7684 17.0507C16.6764 17.0806 16.6304 17.0956 16.5945 17.126C16.5586 17.1565 16.5364 17.1994 16.4919 17.2853L16.115 18.0115C16.0189 18.1966 15.9709 18.2891 15.8834 18.321C15.7959 18.3529 15.6996 18.313 15.507 18.2331L14.7667 17.926C14.6762 17.8885 14.631 17.8698 14.5834 17.8698C14.5357 17.8698 14.4905 17.8885 14.4 17.926L13.6597 18.2331C13.4671 18.313 13.3708 18.3529 13.2833 18.321C13.1958 18.2891 13.1478 18.1966 13.0517 18.0115L12.6749 17.2853C12.6304 17.1994 12.6081 17.1565 12.5722 17.126C12.5363 17.0956 12.4903 17.0806 12.3984 17.0507L11.6269 16.7994C11.4322 16.736 11.3348 16.7043 11.2889 16.6248C11.243 16.5452 11.2644 16.445 11.3071 16.2447L11.481 15.4294C11.5009 15.3364 11.5108 15.2898 11.5028 15.2442C11.4948 15.1985 11.4698 15.1581 11.4196 15.0773L10.9813 14.3709C10.8739 14.1979 10.8203 14.1115 10.8361 14.0215C10.8519 13.9315 10.9319 13.8686 11.0919 13.7427L11.7381 13.2339C11.8134 13.1747 11.8509 13.1451 11.8741 13.1046C11.8972 13.0641 11.9036 13.0167 11.9164 12.9218L12.0269 12.1007C12.0545 11.8958 12.0683 11.7933 12.1391 11.7338C12.2099 11.6743 12.3133 11.6783 12.5199 11.6864L13.3223 11.7179C13.4198 11.7218 13.4685 11.7237 13.5131 11.7073C13.5577 11.6909 13.5935 11.6579 13.6653 11.5918L14.2592 11.0446Z" stroke="#8E95A4" stroke-width="1.25"/>
<path d="M13.333 4.58464L13.2502 4.32709C12.8377 3.04371 12.6315 2.40203 12.1404 2.03499C11.6494 1.66797 10.9971 1.66797 9.69262 1.66797H9.47337C8.16887 1.66797 7.51663 1.66797 7.0256 2.03499C6.53456 2.40203 6.3283 3.04371 5.91579 4.32709L5.83301 4.58464" stroke="#8E95A4" stroke-width="1.25"/>
</svg>
