<svg width="20" height="20" viewBox="0 0 20 20" fill="none" xmlns="http://www.w3.org/2000/svg">
<path d="M10 18.3346H8.75004C5.60732 18.3346 4.03596 18.3346 3.05965 17.3583C2.08333 16.382 2.08335 14.8106 2.08337 11.6679L2.08341 8.33458C2.08343 5.1919 2.08344 3.62057 3.05976 2.64427C4.03607 1.66797 5.6074 1.66797 8.75004 1.66797H9.58329C12.726 1.66797 14.2974 1.66797 15.2737 2.64428C16.25 3.62059 16.25 5.19194 16.25 8.33464V9.16797" stroke="#8E95A4" stroke-width="1.25" stroke-linecap="round" stroke-linejoin="round"/>
<path d="M5.83337 5.83203H12.5M5.83337 9.9987H9.58337" stroke="#8E95A4" stroke-width="1.25" stroke-linecap="round" stroke-linejoin="round"/>
<path d="M14.5833 17.3093C16.0561 17.3093 17.25 16.0883 17.25 14.582C17.25 13.0758 16.0561 11.8548 14.5833 11.8548M14.5833 17.3093C13.1106 17.3093 11.9167 16.0883 11.9167 14.582C11.9167 13.0758 13.1106 11.8548 14.5833 11.8548M14.5833 17.3093V18.332M14.5833 11.8548V10.832M12.1594 13.0944L11.2503 12.5366M17.9167 16.6274L17.0077 16.0696M17.0073 13.0944L17.9163 12.5366M11.25 16.6274L12.159 16.0696" stroke="#8E95A4" stroke-width="1.25" stroke-linecap="round"/>
</svg>
