<svg width="20" height="20" viewBox="0 0 20 20" fill="none" xmlns="http://www.w3.org/2000/svg">
<path d="M16.25 4.57422L15.7336 12.9285C15.6016 15.0629 15.5357 16.1301 15.0007 16.8975C14.7361 17.2768 14.3956 17.597 14.0006 17.8376C13.2017 18.3242 12.1325 18.3242 9.99392 18.3242C7.8526 18.3242 6.78192 18.3242 5.98254 17.8366C5.58733 17.5956 5.24667 17.2749 4.98223 16.8949C4.4474 16.1264 4.38287 15.0576 4.25384 12.9202L3.75 4.57422" stroke="#940200" stroke-width="1.25" stroke-linecap="round"/>
<path d="M2.5 4.57682H17.5M13.3797 4.57682L12.8109 3.40326C12.433 2.62371 12.244 2.23392 11.9181 1.99083C11.8458 1.93691 11.7693 1.88894 11.6892 1.84741C11.3283 1.66016 10.8951 1.66016 10.0287 1.66016C9.14067 1.66016 8.69667 1.66016 8.32973 1.85526C8.24842 1.8985 8.17082 1.94841 8.09774 2.00446C7.76803 2.25741 7.58386 2.66145 7.21551 3.46954L6.71077 4.57682" stroke="#940200" stroke-width="1.25" stroke-linecap="round"/>
<path d="M7.91663 13.7422V8.74219" stroke="#940200" stroke-width="1.25" stroke-linecap="round"/>
<path d="M12.0834 13.7422V8.74219" stroke="#940200" stroke-width="1.25" stroke-linecap="round"/>
</svg>
