<svg width="20" height="20" viewBox="0 0 20 20" fill="none" xmlns="http://www.w3.org/2000/svg">
<path d="M10.792 18.3346C12.9959 18.3346 14.0978 18.3346 14.889 17.7044C15.6802 17.0741 15.9325 15.9952 16.4373 13.8374L18.0351 7.00712C18.3145 5.81267 18.4542 5.21545 18.2005 4.7829C17.7399 3.99739 16.5658 4.16799 15.7995 4.16799" stroke="#8E95A4" stroke-width="1.25" stroke-linecap="round" stroke-linejoin="round"/>
<path d="M1.66663 7.5013C1.66663 4.75144 1.66663 3.37651 2.5209 2.52224C3.37517 1.66797 4.7501 1.66797 7.49996 1.66797H9.99996C12.7498 1.66797 14.1247 1.66797 14.979 2.52224C15.8333 3.37651 15.8333 4.75144 15.8333 7.5013V12.5013C15.8333 15.2511 15.8333 16.6261 14.979 17.4804C14.1247 18.3346 12.7498 18.3346 9.99996 18.3346H7.49996C4.7501 18.3346 3.37517 18.3346 2.5209 17.4804C1.66663 16.6261 1.66663 15.2511 1.66663 12.5013V7.5013Z" stroke="#8E95A4" stroke-width="1.25"/>
<path d="M8.74996 5C10.5909 5 12.0833 6.49238 12.0833 8.33333C12.0833 10.1742 10.5909 11.6667 8.74996 11.6667M8.74996 5C6.90901 5 5.41663 6.49238 5.41663 8.33333C5.41663 10.1742 6.90901 11.6667 8.74996 11.6667M8.74996 5C8.0596 5 7.49996 6.49238 7.49996 8.33333C7.49996 10.1742 8.0596 11.6667 8.74996 11.6667M8.74996 5C9.44029 5 9.99996 6.49238 9.99996 8.33333C9.99996 10.1742 9.44029 11.6667 8.74996 11.6667" stroke="#8E95A4" stroke-width="1.25"/>
<path d="M5.83337 14.168H11.6667" stroke="#8E95A4" stroke-width="1.25" stroke-linecap="round"/>
</svg>
