<svg width="20" height="20" viewBox="0 0 20 20" fill="none" xmlns="http://www.w3.org/2000/svg">
<path d="M10.0001 18.3346C5.39771 18.3346 1.66675 14.6036 1.66675 10.0013C1.66675 7.67419 2.62062 5.56986 4.15872 4.05799M10.0001 18.3346C9.19758 17.74 9.32566 17.0476 9.72825 16.3552C10.3472 15.2908 10.3472 15.2908 10.3472 13.8716C10.3472 12.4525 11.1906 11.7871 14.1667 12.3822C15.504 12.6497 16.4785 10.8021 18.2145 11.4121M10.0001 18.3346C14.1216 18.3346 17.5442 15.3426 18.2145 11.4121M4.15872 4.05799C4.86646 4.13268 5.26272 4.51184 5.92088 5.20727C7.17041 6.52757 8.41991 6.63774 9.253 6.19764C10.5025 5.53749 9.4525 4.46822 10.919 3.88712C11.8181 3.53089 11.9894 2.59796 11.5639 1.81446M4.15872 4.05799C5.66254 2.57981 7.72482 1.66797 10.0001 1.66797C10.5346 1.66797 11.0573 1.71829 11.5639 1.81446M18.2145 11.4121C18.2927 10.9536 18.3334 10.4822 18.3334 10.0013C18.3334 5.93344 15.4187 2.54634 11.5639 1.81446" stroke="#8E95A4" stroke-width="1.25" stroke-linejoin="round"/>
</svg>
