<svg width="20" height="20" viewBox="0 0 20 20" fill="none" xmlns="http://www.w3.org/2000/svg">
<path d="M3.33325 15.5395V6.71319C3.33325 4.33484 3.33325 3.14568 4.06549 2.40683C4.79772 1.66797 5.97623 1.66797 8.33325 1.66797H11.6666C14.0236 1.66797 15.2021 1.66797 15.9343 2.40683C16.6666 3.14568 16.6666 4.33484 16.6666 6.71319V15.5395C16.6666 16.7992 16.6666 17.4291 16.2816 17.677C15.6525 18.0822 14.68 17.2325 14.1908 16.9241C13.7867 16.6691 13.5847 16.5417 13.3603 16.5344C13.118 16.5264 12.9123 16.6486 12.4757 16.9241L10.8833 17.9283C10.4537 18.1991 10.2389 18.3346 9.99992 18.3346C9.76092 18.3346 9.54617 18.1991 9.11658 17.9283L7.52419 16.9241C7.12004 16.6691 6.91797 16.5417 6.69369 16.5344C6.45135 16.5264 6.24569 16.6486 5.80898 16.9241C5.31988 17.2325 4.34731 18.0822 3.71821 17.677C3.33325 17.4291 3.33325 16.7992 3.33325 15.5395Z" stroke="#8E95A4" stroke-width="1.25" stroke-linecap="round" stroke-linejoin="round"/>
<path d="M9.16675 9.16797H6.66675" stroke="#8E95A4" stroke-width="1.25" stroke-linecap="round" stroke-linejoin="round"/>
<path d="M11.6667 5.83203H6.66675" stroke="#8E95A4" stroke-width="1.25" stroke-linecap="round" stroke-linejoin="round"/>
</svg>
