<svg width="20" height="20" viewBox="0 0 20 20" fill="none" xmlns="http://www.w3.org/2000/svg">
<path d="M5.83331 7.07422L8.285 8.52372C9.71431 9.3688 10.2856 9.3688 11.715 8.52372L14.1666 7.07422" stroke="#8E95A4" stroke-width="1.25" stroke-linecap="round" stroke-linejoin="round"/>
<path d="M1.67982 11.2232C1.73431 13.7778 1.76154 15.0551 2.70415 16.0013C3.64676 16.9475 4.95863 16.9804 7.58238 17.0463C9.19944 17.087 10.8006 17.087 12.4177 17.0463C15.0414 16.9804 16.3533 16.9475 17.2959 16.0013C18.2385 15.0551 18.2658 13.7778 18.3202 11.2232C18.3378 10.4018 18.3378 9.58518 18.3202 8.76385C18.2658 6.20921 18.2385 4.9319 17.2959 3.98571C16.3533 3.03952 15.0414 3.00656 12.4177 2.94063C10.8006 2.9 9.19944 2.9 7.58237 2.94062C4.95863 3.00654 3.64676 3.0395 2.70415 3.9857C1.76154 4.93189 1.7343 6.2092 1.67982 8.76376C1.66231 9.58518 1.66231 10.4018 1.67982 11.2232Z" stroke="#8E95A4" stroke-width="1.25" stroke-linejoin="round"/>
</svg>
