<svg width="20" height="20" viewBox="0 0 20 20" fill="none" xmlns="http://www.w3.org/2000/svg">
<path d="M4.15485 15.9766C4.16803 17.0097 4.2356 17.4449 4.58215 17.8378C5.01266 18.326 5.70555 18.326 7.09134 18.326H12.885C14.2707 18.326 14.9637 18.326 15.3942 17.8378C15.7407 17.4449 15.8083 17.0097 15.8215 15.9766" stroke="#8E95A4" stroke-width="1.25" stroke-linecap="round" stroke-linejoin="round"/>
<path d="M9.99068 15.8823H3.96423C3.36593 15.8823 2.84835 15.3943 2.92355 14.8007C3.0561 13.7544 3.58808 12.4896 5.69678 11.7118C6.43807 11.4383 7.25428 11.2016 7.65644 10.5216C8.22091 9.56698 8.46968 8.52215 7.41684 6.73032C5.69678 3.34048 8.27043 1.65625 10.0096 1.65625C11.7487 1.65625 14.2909 3.44748 12.5537 6.73032C11.4989 8.50757 11.7793 9.56698 12.3438 10.5216C12.7459 11.2016 13.5621 11.4383 14.3034 11.7118C16.4121 12.4896 16.9441 13.7544 17.0766 14.8007C17.1519 15.3943 16.6343 15.8823 16.0359 15.8823H10.0095" stroke="#8E95A4" stroke-width="1.25" stroke-linecap="round" stroke-linejoin="round"/>
</svg>
