<svg width="20" height="21" viewBox="0 0 20 21" fill="none" xmlns="http://www.w3.org/2000/svg">
<path d="M9.99999 3.75C14.044 3.75 17.4085 6.66 18.1142 10.5C17.4092 14.34 14.044 17.25 9.99999 17.25C5.95599 17.25 2.59149 14.34 1.88574 10.5C2.59074 6.66 5.95599 3.75 9.99999 3.75ZM9.99999 15.75C11.5296 15.7497 13.0138 15.2301 14.2096 14.2764C15.4055 13.3226 16.2422 11.9912 16.5827 10.5C16.2409 9.00998 15.4037 7.68 14.208 6.72752C13.0122 5.77504 11.5287 5.2564 9.99999 5.2564C8.47126 5.2564 6.98776 5.77504 5.79202 6.72752C4.59629 7.68 3.75907 9.00998 3.41724 10.5C3.75781 11.9912 4.5945 13.3226 5.79035 14.2764C6.9862 15.2301 8.47039 15.7497 9.99999 15.75ZM9.99999 13.875C9.10489 13.875 8.24644 13.5194 7.61351 12.8865C6.98057 12.2535 6.62499 11.3951 6.62499 10.5C6.62499 9.60489 6.98057 8.74645 7.61351 8.11351C8.24644 7.48058 9.10489 7.125 9.99999 7.125C10.8951 7.125 11.7535 7.48058 12.3865 8.11351C13.0194 8.74645 13.375 9.60489 13.375 10.5C13.375 11.3951 13.0194 12.2535 12.3865 12.8865C11.7535 13.5194 10.8951 13.875 9.99999 13.875ZM9.99999 12.375C10.4973 12.375 10.9742 12.1775 11.3258 11.8258C11.6774 11.4742 11.875 10.9973 11.875 10.5C11.875 10.0027 11.6774 9.52581 11.3258 9.17417C10.9742 8.82254 10.4973 8.625 9.99999 8.625C9.50271 8.625 9.0258 8.82254 8.67417 9.17417C8.32254 9.52581 8.12499 10.0027 8.12499 10.5C8.12499 10.9973 8.32254 11.4742 8.67417 11.8258C9.0258 12.1775 9.50271 12.375 9.99999 12.375Z" fill="#8E95A4"/>
</svg>
