<svg width="20" height="21" viewBox="0 0 20 21" fill="none" xmlns="http://www.w3.org/2000/svg">
<path d="M10 14.25V12.5833" stroke="#8E95A4" stroke-width="1.25" stroke-linecap="round"/>
<path d="M3.55652 16.2039C3.74392 17.5958 4.89679 18.6862 6.29973 18.7507C7.48024 18.805 8.67944 18.8333 10 18.8333C11.3206 18.8333 12.5198 18.805 13.7003 18.7507C15.1033 18.6862 16.2561 17.5958 16.4435 16.2039C16.5658 15.2956 16.6667 14.3647 16.6667 13.4167C16.6667 12.4687 16.5658 11.5378 16.4435 10.6294C16.2561 9.2375 15.1033 8.14707 13.7003 8.08257C12.5198 8.02831 11.3206 8 10 8C8.67944 8 7.48024 8.02831 6.29973 8.08257C4.89679 8.14707 3.74392 9.2375 3.55652 10.6294C3.43422 11.5378 3.33334 12.4687 3.33334 13.4167C3.33334 14.3647 3.43422 15.2956 3.55652 16.2039Z" stroke="#8E95A4" stroke-width="1.25"/>
<path d="M6.25 8.00002V5.91669C6.25 3.84562 7.92893 2.16669 10 2.16669C12.0711 2.16669 13.75 3.84562 13.75 5.91669V8.00002" stroke="#8E95A4" stroke-width="1.25" stroke-linecap="round" stroke-linejoin="round"/>
</svg>
