<svg width="21" height="20" viewBox="0 0 21 20" fill="none" xmlns="http://www.w3.org/2000/svg">
<path d="M9.53986 2.5C13.2659 2.5 16.2899 5.524 16.2899 9.25C16.2899 12.976 13.2659 16 9.53986 16C5.81386 16 2.78986 12.976 2.78986 9.25C2.78986 5.524 5.81386 2.5 9.53986 2.5ZM9.53986 14.5C12.4401 14.5 14.7899 12.1502 14.7899 9.25C14.7899 6.349 12.4401 4 9.53986 4C6.63886 4 4.28986 6.349 4.28986 9.25C4.28986 12.1502 6.63886 14.5 9.53986 14.5ZM15.9036 14.5532L18.0254 16.6742L16.9641 17.7355L14.8431 15.6137L15.9036 14.5532Z" fill="#AAAFBB"/>
</svg>
