<svg width="30" height="30" viewBox="0 0 30 30" fill="none" xmlns="http://www.w3.org/2000/svg">
<path d="M9.0473 10.8335L12.5497 12.9042C14.5916 14.1115 15.4078 14.1115 17.4497 12.9042L20.9521 10.8335" stroke="#2D3139" stroke-width="1.78571" stroke-linecap="round" stroke-linejoin="round"/>
<path d="M3.1149 16.7571C3.19273 20.4065 3.23164 22.2313 4.57822 23.5829C5.9248 24.9347 7.79891 24.9817 11.5471 25.0759C13.8572 25.134 16.1446 25.134 18.4547 25.0759C22.2029 24.9817 24.077 24.9347 25.4235 23.5829C26.7702 22.2313 26.8091 20.4065 26.8869 16.7571C26.912 15.5836 26.912 14.4171 26.8869 13.2438C26.8091 9.59428 26.7702 7.76955 25.4235 6.41785C24.077 5.06615 22.2029 5.01906 18.4547 4.92488C16.1446 4.86684 13.8572 4.86684 11.5471 4.92487C7.79891 5.01904 5.9248 5.06612 4.57822 6.41784C3.23164 7.76954 3.19272 9.59427 3.1149 13.2436C3.08987 14.4171 3.08987 15.5836 3.1149 16.7571Z" stroke="#2D3139" stroke-width="1.78571" stroke-linejoin="round"/>
</svg>
