<svg width="148" height="149" viewBox="0 0 148 149" fill="none" xmlns="http://www.w3.org/2000/svg">
<rect y="0.5" width="148" height="148" rx="74" fill="#F2F5F8"/>
<rect x="35.248" y="40.6309" width="65.9741" height="83.2222" rx="3.05155" fill="#E1E4EA" stroke="#99A0AE" stroke-miterlimit="10"/>
<path d="M42.5 36.8836V106.077C42.5 112.142 47.4131 117.055 53.4779 117.055H100.937C105.102 117.055 108.474 113.683 108.474 109.518V36.8836C108.474 35.1976 107.109 33.832 105.423 33.832H45.5515C43.8656 33.832 42.5 35.1976 42.5 36.8836Z" fill="white" stroke="#99A0AE" stroke-miterlimit="10"/>
<rect x="62.0713" y="29.5156" width="26.8307" height="8.63836" rx="1.52577" fill="#CACFD8" stroke="#99A0AE" stroke-miterlimit="10"/>
<path d="M70 26C70 22.9624 72.4624 20.5 75.5 20.5C78.5376 20.5 81 22.9624 81 26V29.5H70V26Z" fill="#CACFD8" stroke="#99A0AE" stroke-miterlimit="10"/>
<circle cx="75.4863" cy="25.4912" r="2.4912" fill="white"/>
<path d="M108.86 40.6309H112.663C114.349 40.6309 115.715 41.9971 115.715 43.6824V58.2954C115.715 59.9807 114.349 61.3469 112.663 61.3469H108.86V40.6309Z" fill="#E1E4EA" stroke="#99A0AE" stroke-miterlimit="10"/>
<path d="M108.86 88.4609H112.663C114.349 88.4609 115.715 89.8272 115.715 91.5125V106.125C115.715 107.811 114.349 109.177 112.663 109.177H108.86V88.4609Z" fill="#E1E4EA" stroke="#99A0AE" stroke-miterlimit="10"/>
<path d="M60.0377 59.8687H55.1445" stroke="#99A0AE" stroke-linecap="round" stroke-linejoin="round"/>
<path fill-rule="evenodd" clip-rule="evenodd" d="M54.7705 59.6299C53.3221 58.6065 52.4535 56.8196 52.7594 54.8526C53.0905 52.7265 54.8626 51.0293 57.0001 50.779C59.967 50.4307 62.4846 52.7403 62.4846 55.6371C62.4846 57.2885 61.6642 58.7459 60.4107 59.6316C60.1856 59.7906 60.038 60.0369 60.038 60.3125V62.5691C60.038 63.6954 59.1254 64.608 57.9992 64.608H57.1836C56.0574 64.608 55.1448 63.6954 55.1448 62.5691V60.3158C55.1448 60.0377 54.9964 59.7898 54.7705 59.6299Z" stroke="#99A0AE" stroke-linecap="round" stroke-linejoin="round"/>
<path d="M64.1152 51.5603L65.0857 50.5898" stroke="#99A0AE" stroke-linecap="round" stroke-linejoin="round"/>
<path d="M51.0672 59.7148L50.0967 60.6853" stroke="#99A0AE" stroke-linecap="round" stroke-linejoin="round"/>
<path d="M51.8826 50.7439L50.9121 49.7734" stroke="#99A0AE" stroke-linecap="round" stroke-linejoin="round"/>
<path d="M64.1152 59.7148L65.0857 60.6853" stroke="#99A0AE" stroke-linecap="round" stroke-linejoin="round"/>
<path d="M64.9307 55.6363H66.3089" stroke="#99A0AE" stroke-linecap="round" stroke-linejoin="round"/>
<path d="M48.873 55.6363H50.2513" stroke="#99A0AE" stroke-linecap="round" stroke-linejoin="round"/>
<path d="M55.1445 62.1617H59.9317" stroke="#99A0AE" stroke-linecap="round" stroke-linejoin="round"/>
<rect x="71.2363" y="51.8086" width="29.1287" height="3.70136" rx="0.762887" fill="#E1E4EA"/>
<rect x="71.2354" y="59.0273" width="16.8086" height="3.70136" rx="0.762887" fill="#E1E4EA"/>
<path d="M53.4775 117.055L105.453 117.032C109.039 117.032 111.945 114.133 111.945 110.547C111.945 107.366 109.641 104.711 106.613 104.17L106.407 104.132L55.6899 95.3125C60.702 96.3348 64.4631 100.76 64.4631 106.077C64.4631 112.142 59.55 117.055 53.4775 117.055Z" fill="#CACFD8" stroke="#99A0AE" stroke-miterlimit="10"/>
<circle cx="108.861" cy="35.2222" r="12.2593" fill="#E1E4EA" stroke="#99A0AE" stroke-miterlimit="10"/>
<path fill-rule="evenodd" clip-rule="evenodd" d="M100.987 44.6196C101.331 40.8847 104.272 37.902 107.988 37.4942C106.009 37.0904 104.519 35.3393 104.519 33.2401C104.519 30.8423 106.463 28.8984 108.861 28.8984C111.258 28.8984 113.202 30.8423 113.202 33.2401C113.202 35.3392 111.713 37.0904 109.733 37.4942C113.449 37.9019 116.39 40.8846 116.734 44.6194C114.604 46.4059 111.858 47.4817 108.861 47.4817C105.863 47.4817 103.117 46.406 100.987 44.6196Z" fill="#99A0AE"/>
<path d="M107.988 37.4942L108.043 37.9912C108.288 37.9644 108.477 37.7632 108.488 37.5172C108.499 37.2711 108.33 37.0535 108.088 37.0043L107.988 37.4942ZM100.987 44.6196L100.489 44.5738C100.474 44.7371 100.54 44.8973 100.666 45.0027L100.987 44.6196ZM109.733 37.4942L109.633 37.0043C109.392 37.0535 109.222 37.2711 109.233 37.5172C109.245 37.7632 109.434 37.9644 109.678 37.9912L109.733 37.4942ZM116.734 44.6194L117.055 45.0025C117.181 44.8972 117.247 44.7369 117.232 44.5736L116.734 44.6194ZM107.988 37.4942L107.934 36.9972C103.982 37.4309 100.855 40.6018 100.489 44.5738L100.987 44.6196L101.485 44.6654C101.807 41.1676 104.563 38.3732 108.043 37.9912L107.988 37.4942ZM104.519 33.2401H104.019C104.019 35.5816 105.68 37.5338 107.888 37.9841L107.988 37.4942L108.088 37.0043C106.337 36.6471 105.019 35.0969 105.019 33.2401H104.519ZM108.861 28.8984V28.3984C106.187 28.3984 104.019 30.5661 104.019 33.2401H104.519H105.019C105.019 31.1184 106.739 29.3984 108.861 29.3984V28.8984ZM113.202 33.2401H113.702C113.702 30.5661 111.535 28.3984 108.861 28.3984V28.8984V29.3984C110.982 29.3984 112.702 31.1184 112.702 33.2401H113.202ZM109.733 37.4942L109.833 37.9841C112.041 37.5338 113.702 35.5815 113.702 33.2401H113.202H112.702C112.702 35.0969 111.385 36.647 109.633 37.0043L109.733 37.4942ZM116.734 44.6194L117.232 44.5736C116.866 40.6017 113.739 37.4308 109.787 36.9972L109.733 37.4942L109.678 37.9912C113.159 38.3731 115.914 41.1675 116.236 44.6653L116.734 44.6194ZM116.734 44.6194L116.413 44.2364C114.37 45.9501 111.736 46.9817 108.861 46.9817V47.4817V47.9817C111.98 47.9817 114.839 46.8617 117.055 45.0025L116.734 44.6194ZM108.861 47.4817V46.9817C105.985 46.9817 103.352 45.9502 101.309 44.2365L100.987 44.6196L100.666 45.0027C102.883 46.8618 105.741 47.9817 108.861 47.9817V47.4817Z" fill="#99A0AE"/>
<circle cx="39.1382" cy="93.7163" r="12.2593" fill="white" stroke="#99A0AE" stroke-miterlimit="10"/>
<path fill-rule="evenodd" clip-rule="evenodd" d="M31.2646 103.113C31.6084 99.3789 34.5492 96.3964 38.2647 95.9881C36.2854 95.584 34.7963 93.833 34.7963 91.7343C34.7963 89.3364 36.7401 87.3926 39.138 87.3926C41.5358 87.3926 43.4797 89.3364 43.4797 91.7343C43.4797 93.833 41.9906 95.5839 40.0113 95.9881C43.7268 96.3963 46.6676 99.3788 47.0115 103.113C44.8816 104.9 42.1354 105.975 39.138 105.975C36.1406 105.975 33.3945 104.9 31.2646 103.113Z" fill="#99A0AE"/>
<path d="M38.2647 95.9881L38.3193 96.4852C38.5641 96.4583 38.7529 96.2571 38.7642 96.0111C38.7755 95.7651 38.606 95.5475 38.3647 95.4983L38.2647 95.9881ZM31.2646 103.113L30.7668 103.068C30.7517 103.231 30.8177 103.391 30.9433 103.497L31.2646 103.113ZM40.0113 95.9881L39.9112 95.4982C39.67 95.5475 39.5005 95.7651 39.5118 96.0111C39.5231 96.2571 39.7119 96.4582 39.9567 96.4851L40.0113 95.9881ZM47.0115 103.113L47.3328 103.496C47.4584 103.391 47.5244 103.231 47.5094 103.067L47.0115 103.113ZM38.2647 95.9881L38.2101 95.4911C34.2588 95.9253 31.1324 99.096 30.7668 103.068L31.2646 103.113L31.7625 103.159C32.0845 99.6618 34.8396 96.8675 38.3193 96.4852L38.2647 95.9881ZM34.7963 91.7343H34.2963C34.2963 94.0753 35.9572 96.0273 38.1647 96.478L38.2647 95.9881L38.3647 95.4983C36.6136 95.1407 35.2963 93.5908 35.2963 91.7343H34.7963ZM39.138 87.3926V86.8926C36.464 86.8926 34.2963 89.0603 34.2963 91.7343H34.7963H35.2963C35.2963 89.6126 37.0162 87.8926 39.138 87.8926V87.3926ZM43.4797 91.7343H43.9797C43.9797 89.0603 41.812 86.8926 39.138 86.8926V87.3926V87.8926C41.2597 87.8926 42.9797 89.6126 42.9797 91.7343H43.4797ZM40.0113 95.9881L40.1113 96.478C42.3188 96.0272 43.9797 94.0753 43.9797 91.7343H43.4797H42.9797C42.9797 93.5907 41.6624 95.1406 39.9112 95.4982L40.0113 95.9881ZM47.0115 103.113L47.5094 103.067C47.1437 99.0959 44.0172 95.9252 40.0659 95.4911L40.0113 95.9881L39.9567 96.4851C43.4364 96.8674 46.1915 99.6616 46.5136 103.159L47.0115 103.113ZM47.0115 103.113L46.6902 102.73C44.6469 104.444 42.0136 105.475 39.138 105.475V105.975V106.475C42.2572 106.475 45.1162 105.356 47.3328 103.496L47.0115 103.113ZM39.138 105.975V105.475C36.2625 105.475 33.6292 104.444 31.586 102.73L31.2646 103.113L30.9433 103.497C33.1599 105.356 36.0188 106.475 39.138 106.475V105.975Z" fill="#99A0AE"/>
<path d="M22.8672 47.2403C22.8672 47.2403 16.8672 47.2607 16.8672 53.2402C16.8672 47.2607 10.8672 47.2403 10.8672 47.2403C10.8672 47.2403 16.8672 47.2198 16.8672 41.2402C16.8672 47.2198 22.8672 47.2403 22.8672 47.2403Z" fill="white" stroke="#99A0AE" stroke-linecap="round" stroke-linejoin="round"/>
<path d="M141.138 95.8672C141.138 95.8672 135.138 95.8876 135.138 101.867C135.138 95.8876 129.138 95.8672 129.138 95.8672C129.138 95.8672 135.138 95.8468 135.138 89.8672C135.138 95.8468 141.138 95.8672 141.138 95.8672Z" fill="white" stroke="#99A0AE" stroke-linecap="round" stroke-linejoin="round"/>
<circle cx="58.746" cy="80.5819" r="3.41203" fill="#E1E4EA"/>
<circle cx="75.4872" cy="80.5819" r="3.41203" fill="#E1E4EA"/>
<circle cx="92.2284" cy="80.5819" r="3.41203" fill="#E1E4EA"/>
</svg>
