<svg width="16" height="16" viewBox="0 0 16 16" fill="none" xmlns="http://www.w3.org/2000/svg">
<path d="M8 10V11" stroke="#94770F" stroke-linecap="round" stroke-linejoin="round"/>
<path d="M1.99988 10C2.09942 11.955 2.20369 12.9811 2.93196 13.6298C3.7217 14.3333 4.95358 14.3333 7.41733 14.3333H8.58247C11.0462 14.3333 12.2781 14.3333 13.0678 13.6298C13.7961 12.9811 13.9003 11.955 13.9999 10" stroke="#94770F" stroke-linecap="round" stroke-linejoin="round"/>
<path d="M1.89808 6.96207C3.03095 9.11627 5.58609 10 7.99996 10C10.4138 10 12.969 9.11627 14.1018 6.96207C14.6426 5.93371 14.2332 4 12.9013 4H3.09863C1.76678 4 1.35731 5.93371 1.89808 6.96207Z" stroke="#94770F"/>
<path d="M10.6666 3.99935L10.6077 3.79331C10.3144 2.76661 10.1677 2.25326 9.81853 1.95964C9.46933 1.66602 9.00553 1.66602 8.07787 1.66602H7.92193C6.99433 1.66602 6.5305 1.66602 6.18132 1.95964C5.83213 2.25326 5.68546 2.76661 5.39212 3.79331L5.33325 3.99935" stroke="#94770F"/>
</svg>
