<svg width="20" height="20" viewBox="0 0 20 20" fill="none" xmlns="http://www.w3.org/2000/svg">
<path d="M12.0832 15.8346H10.4165C8.05948 15.8346 6.88097 15.8346 6.14874 15.1024C5.4165 14.3701 5.4165 13.1916 5.4165 10.8346V6.66797C5.4165 4.31094 5.4165 3.13244 6.14874 2.4002C6.88097 1.66797 8.05948 1.66797 10.4165 1.66797H11.5358C12.2171 1.66797 12.5577 1.66797 12.864 1.79484C13.1702 1.9217 13.4111 2.16256 13.8928 2.64428L16.1068 4.85833C16.5886 5.34004 16.8294 5.5809 16.9563 5.88719C17.0832 6.19347 17.0832 6.53409 17.0832 7.21534V10.8346C17.0832 13.1916 17.0832 14.3701 16.3509 15.1024C15.6187 15.8346 14.4402 15.8346 12.0832 15.8346Z" stroke="#17181C" stroke-width="1.25" stroke-linecap="round" stroke-linejoin="round"/>
<path d="M12.4998 2.08203V2.91536C12.4998 4.48671 12.4998 5.27239 12.9879 5.76054C13.4761 6.2487 14.2618 6.2487 15.8331 6.2487H16.6664" stroke="#17181C" stroke-width="1.25" stroke-linecap="round" stroke-linejoin="round"/>
<path d="M5.41626 4.16797C4.03555 4.16797 2.91626 5.28726 2.91626 6.66797V13.3346C2.91626 15.6917 2.91626 16.8702 3.64849 17.6024C4.38073 18.3346 5.55923 18.3346 7.91626 18.3346H12.0832C13.4639 18.3346 14.5832 17.2153 14.5832 15.8346" stroke="#17181C" stroke-width="1.25" stroke-linecap="round" stroke-linejoin="round"/>
<path d="M8.33325 9.16797H11.6666M8.33325 12.5013H14.1666" stroke="#17181C" stroke-width="1.25" stroke-linecap="round" stroke-linejoin="round"/>
</svg>
