<svg width="20" height="20" viewBox="0 0 20 20" fill="none" xmlns="http://www.w3.org/2000/svg">
<path d="M7.0835 13.75C7.66569 12.7435 8.75388 12.0664 10.0001 12.0664C11.2465 12.0664 12.3346 12.7435 12.9168 13.75M11.6669 8.33329C11.6669 9.25379 10.9206 9.99996 10.0002 9.99996C9.07971 9.99996 8.33352 9.25379 8.33352 8.33329C8.33352 7.41282 9.07971 6.66663 10.0002 6.66663C10.9206 6.66663 11.6669 7.41282 11.6669 8.33329Z" stroke="#727A8D" stroke-width="1.25" stroke-linecap="round"/>
<path d="M18.3332 11.6391V8.36104C15.9526 8.36104 14.4046 5.77538 15.6098 3.72247L12.7231 2.08346C11.503 4.16175 8.498 4.16167 7.27786 2.08337L4.39111 3.72238C5.59639 5.77533 4.04711 8.36104 1.6665 8.36104V11.6391C4.04707 11.6391 5.59505 14.2248 4.3898 16.2777L7.27655 17.9167C8.49725 15.8374 11.5037 15.8373 12.7244 17.9166L15.6112 16.2776C14.406 14.2247 15.9527 11.6391 18.3332 11.6391Z" stroke="#727A8D" stroke-width="1.25" stroke-linecap="round" stroke-linejoin="round"/>
</svg>
