<svg width="20" height="20" viewBox="0 0 20 20" fill="none" xmlns="http://www.w3.org/2000/svg">
<path d="M7.08325 13.75C7.66544 12.7435 8.75364 12.0664 9.99989 12.0664C11.2462 12.0664 12.3344 12.7435 12.9166 13.75M11.6666 8.33329C11.6666 9.25379 10.9204 9.99996 9.99997 9.99996C9.07947 9.99996 8.33328 9.25379 8.33328 8.33329C8.33328 7.41282 9.07947 6.66663 9.99997 6.66663C10.9204 6.66663 11.6666 7.41282 11.6666 8.33329Z" stroke="#600100" stroke-width="1.25" stroke-linecap="round"/>
<path d="M18.3334 11.6391V8.36104C15.9528 8.36104 14.4048 5.77538 15.6101 3.72247L12.7233 2.08346C11.5032 4.16175 8.49825 4.16167 7.27811 2.08337L4.39136 3.72238C5.59663 5.77533 4.04736 8.36104 1.66675 8.36104V11.6391C4.04731 11.6391 5.59529 14.2248 4.39004 16.2777L7.27679 17.9167C8.4975 15.8374 11.5039 15.8373 12.7247 17.9166L15.6114 16.2776C14.4062 14.2247 15.9529 11.6391 18.3334 11.6391Z" stroke="#600100" stroke-width="1.25" stroke-linecap="round" stroke-linejoin="round"/>
</svg>
