<svg width="20" height="20" viewBox="0 0 20 20" fill="none" xmlns="http://www.w3.org/2000/svg">
<path d="M2.5 9.16663L2.6274 11.8557C2.76428 14.7238 2.83272 16.1578 3.79904 17.0372C4.76536 17.9166 6.27263 17.9166 9.28717 17.9166H10.7128C13.7273 17.9166 15.2347 17.9166 16.201 17.0372C17.1672 16.1578 17.2357 14.7238 17.3726 11.8557L17.5 9.16663" stroke="#727A8D" stroke-width="1.25" stroke-linecap="round" stroke-linejoin="round"/>
<path d="M2.37257 8.70258C3.78865 11.3953 6.98259 12.5 9.99992 12.5C13.0173 12.5 16.2112 11.3953 17.6273 8.70258C18.3033 7.41713 17.7914 5 16.1266 5H3.87325C2.20844 5 1.69661 7.41713 2.37257 8.70258Z" stroke="#727A8D" stroke-width="1.25"/>
<path d="M10 9.16663H10.0075" stroke="#727A8D" stroke-width="1.66667" stroke-linecap="round" stroke-linejoin="round"/>
<path d="M13.3334 5.00004L13.2598 4.74249C12.8932 3.45912 12.7098 2.81743 12.2733 2.4504C11.8368 2.08337 11.2571 2.08337 10.0975 2.08337H9.9026C8.7431 2.08337 8.16331 2.08337 7.72683 2.4504C7.29035 2.81743 7.10701 3.45912 6.74033 4.74249L6.66675 5.00004" stroke="#727A8D" stroke-width="1.25"/>
</svg>
