<svg width="20" height="20" viewBox="0 0 20 20" fill="none" xmlns="http://www.w3.org/2000/svg">
<path d="M18.3333 9.99105C18.3333 14.5934 14.6023 18.3244 9.99996 18.3244C5.39758 18.3244 1.66663 14.5934 1.66663 9.99105C1.66663 5.38867 5.39758 1.65771 9.99996 1.65771C14.6023 1.65771 18.3333 5.38867 18.3333 9.99105Z" stroke="#8E95A4" stroke-width="1.25"/>
<path d="M12.2917 7.90788C12.2917 9.17354 11.2657 10.1995 10 10.1995C8.73437 10.1995 7.70837 9.17354 7.70837 7.90788C7.70837 6.64223 8.73437 5.61621 10 5.61621C11.2657 5.61621 12.2917 6.64223 12.2917 7.90788Z" stroke="#8E95A4" stroke-width="1.25"/>
<path d="M4.58337 15.8249L5.05037 15.0076C5.79222 13.7095 7.17282 12.9082 8.66809 12.9082H11.332C12.8273 12.9082 14.2078 13.7095 14.9497 15.0076L15.4167 15.8249" stroke="#8E95A4" stroke-width="1.25" stroke-linecap="round" stroke-linejoin="round"/>
</svg>
