<svg width="20" height="20" viewBox="0 0 20 20" fill="none" xmlns="http://www.w3.org/2000/svg">
<path d="M5.83331 7.07471L8.285 8.52421C9.71431 9.36929 10.2856 9.36929 11.715 8.52421L14.1666 7.07471" stroke="#8E95A4" stroke-width="1.25" stroke-linecap="round" stroke-linejoin="round"/>
<path d="M1.67982 11.2207C1.73431 13.7753 1.76154 15.0527 2.70415 15.9988C3.64676 16.9451 4.95863 16.978 7.58238 17.0439C9.19944 17.0846 10.8006 17.0846 12.4177 17.0439C15.0414 16.978 16.3533 16.9451 17.2959 15.9988C18.2385 15.0527 18.2658 13.7753 18.3202 11.2207C18.3378 10.3993 18.3378 9.58274 18.3202 8.76141C18.2658 6.20677 18.2385 4.92946 17.2959 3.98327C16.3533 3.03707 15.0414 3.00412 12.4177 2.93819C10.8006 2.89756 9.19944 2.89756 7.58237 2.93818C4.95863 3.0041 3.64676 3.03706 2.70415 3.98326C1.76154 4.92945 1.7343 6.20676 1.67982 8.76132C1.66231 9.58274 1.66231 10.3993 1.67982 11.2207Z" stroke="#8E95A4" stroke-width="1.25" stroke-linejoin="round"/>
</svg>
