<svg width="20" height="20" viewBox="0 0 20 20" fill="none" xmlns="http://www.w3.org/2000/svg">
<path d="M2.08301 9.99089C2.08301 6.25894 2.08301 4.39296 3.24237 3.23359C4.40175 2.07422 6.26772 2.07422 9.99967 2.07422C13.7316 2.07422 15.5976 2.07422 16.757 3.23359C17.9163 4.39296 17.9163 6.25894 17.9163 9.99089C17.9163 13.7228 17.9163 15.5888 16.757 16.7482C15.5976 17.9076 13.7316 17.9076 9.99967 17.9076C6.26772 17.9076 4.40175 17.9076 3.24237 16.7482C2.08301 15.5888 2.08301 13.7228 2.08301 9.99089Z" stroke="#8E95A4" stroke-width="1.25"/>
<path d="M9.16699 5.82422H14.167" stroke="#8E95A4" stroke-width="1.25" stroke-linecap="round"/>
<path d="M5.83301 5.82422H6.66634" stroke="#8E95A4" stroke-width="1.25" stroke-linecap="round"/>
<path d="M5.83301 9.99121H6.66634" stroke="#8E95A4" stroke-width="1.25" stroke-linecap="round"/>
<path d="M5.83301 14.1582H6.66634" stroke="#8E95A4" stroke-width="1.25" stroke-linecap="round"/>
<path d="M9.16699 9.99121H14.167" stroke="#8E95A4" stroke-width="1.25" stroke-linecap="round"/>
<path d="M9.16699 14.1582H14.167" stroke="#8E95A4" stroke-width="1.25" stroke-linecap="round"/>
</svg>
